<?xml version="1.0" standalone="no"?>
<!DOCTYPE svg PUBLIC "-//W3C//DTD SVG 20010904//EN"
 "http://www.w3.org/TR/2001/REC-SVG-20010904/DTD/svg10.dtd">
<svg version="1.0" xmlns="http://www.w3.org/2000/svg"
 width="2055.000000pt" height="2055.000000pt" viewBox="0 0 2055.000000 2055.000000"
 preserveAspectRatio="xMidYMid meet">
<g transform="translate(0.000000,2055.000000) scale(0.100000,-0.100000)"
fill="#000000" stroke="none">
<path d="M9845 19819 c-190 -8 -498 -34 -657 -54 -232 -30 -473 -66 -598 -89
-69 -13 -147 -27 -175 -31 -96 -13 -733 -177 -979 -251 -1281 -389 -2443
-1043 -3496 -1965 -96 -84 -283 -261 -416 -394 -514 -514 -895 -989 -1338
-1670 -53 -82 -193 -318 -283 -480 -104 -186 -326 -638 -388 -790 -18 -44 -56
-136 -84 -205 -53 -126 -200 -526 -219 -590 -5 -19 -39 -132 -75 -250 -59
-194 -217 -815 -232 -915 -4 -22 -18 -98 -31 -170 -23 -125 -71 -451 -94 -639
-16 -130 -40 -445 -50 -646 -21 -436 1 -1053 50 -1456 23 -188 71 -514 94
-639 13 -71 27 -148 31 -170 15 -100 173 -721 232 -915 36 -118 70 -231 75
-250 48 -168 283 -761 400 -1010 170 -361 416 -813 574 -1055 447 -686 823
-1156 1338 -1670 398 -397 719 -668 1241 -1047 341 -247 805 -525 1210 -726
694 -344 1255 -548 2050 -746 187 -46 363 -87 390 -91 28 -4 106 -18 175 -31
242 -46 638 -98 913 -120 525 -43 1019 -43 1544 0 275 22 671 74 913 120 69
13 148 27 175 31 96 13 733 177 979 251 1280 389 2443 1043 3496 1965 96 84
283 261 416 394 515 514 891 984 1338 1670 158 242 404 694 574 1055 53 112
75 162 181 420 53 127 201 526 219 590 5 19 39 132 75 250 59 194 217 815 232
915 4 22 18 99 31 170 23 125 71 451 94 639 49 403 71 1020 50 1456 -10 201
-34 516 -50 646 -23 188 -71 514 -94 639 -13 72 -27 148 -31 170 -15 100 -173
721 -232 915 -36 118 -70 231 -75 250 -48 168 -283 761 -400 1010 -170 361
-416 813 -574 1055 -447 686 -823 1156 -1338 1670 -398 397 -719 668 -1241
1047 -341 247 -805 525 -1210 726 -694 344 -1255 548 -2050 746 -187 46 -362
87 -390 91 -27 4 -106 18 -175 31 -242 46 -638 98 -913 120 -383 31 -829 40
-1202 23z m1083 -1543 c101 -9 265 -28 365 -41 100 -14 231 -32 290 -40 302
-41 749 -148 1127 -269 313 -100 484 -165 860 -328 123 -54 550 -271 662 -337
48 -28 89 -51 92 -51 6 0 128 -76 334 -207 751 -479 1506 -1190 2081 -1963 88
-118 292 -421 391 -582 225 -365 507 -943 662 -1358 103 -273 226 -675 292
-950 84 -353 164 -874 198 -1295 17 -212 17 -948 0 -1160 -34 -421 -114 -942
-198 -1295 -66 -275 -189 -677 -292 -950 -155 -415 -440 -998 -662 -1358 -359
-579 -717 -1032 -1184 -1497 -419 -418 -855 -772 -1288 -1048 -206 -131 -328
-207 -334 -207 -3 0 -44 -23 -92 -51 -112 -66 -539 -283 -662 -337 -376 -163
-547 -228 -860 -328 -378 -121 -825 -228 -1127 -269 -59 -8 -190 -26 -290 -40
-354 -49 -532 -59 -1018 -59 -486 0 -664 10 -1018 59 -100 14 -231 32 -290 40
-302 41 -749 148 -1127 269 -313 100 -484 165 -860 328 -123 54 -550 271 -662
337 -48 28 -89 51 -92 51 -6 0 -128 76 -334 207 -674 429 -1350 1045 -1908
1738 -535 664 -1006 1523 -1300 2370 -60 174 -180 584 -217 745 -76 325 -150
784 -182 1125 -46 493 -44 1098 6 1555 22 202 81 603 115 780 133 694 396
1443 732 2090 401 772 862 1403 1466 2005 417 416 855 772 1288 1048 206 131
328 207 334 207 3 0 44 23 92 51 112 66 539 283 662 337 376 163 547 228 860
328 378 121 825 228 1127 269 59 8 189 26 288 39 154 22 414 46 640 60 151 9
861 -3 1033 -18z"/>
<path d="M10185 14033 c-73 -11 -192 -46 -239 -70 -123 -62 -256 -183 -325
-298 -19 -31 -48 -102 -65 -158 l-31 -102 -3 -1182 -2 -1183 -1154 0 c-1120 0
-1157 -1 -1239 -20 -122 -29 -190 -54 -244 -91 -291 -197 -421 -515 -338 -829
51 -191 149 -338 300 -446 80 -56 133 -80 252 -110 l96 -24 1163 0 1164 0 0
-1163 0 -1163 30 -122 c35 -143 40 -154 120 -260 100 -133 225 -220 385 -268
124 -37 301 -40 420 -6 289 83 488 298 549 594 14 68 16 216 16 1227 l0 1150
1173 3 1172 3 94 28 c128 37 163 54 258 125 134 100 229 237 275 397 32 114
32 316 0 428 -44 153 -130 282 -258 385 -84 68 -166 106 -295 138 l-98 24
-1161 0 -1160 0 0 1168 0 1167 -24 92 c-46 180 -133 313 -273 417 -99 74 -151
100 -254 126 -82 21 -242 34 -304 23z"/>
</g>
</svg>
